PathFileType	4	(X/Y/Z)	../Python\walking\Walking16\task.trc
DataRate	CameraRate	NumFrames	NumMarkers	Units	OrigDataRate	OrigDataStartFrame	OrigNumFrames
200.000000	200.000000	4	30	mm	200.000000	282	452
Frame#	Time	C7			RBAK			CLAV			STRN			RASI			LASI			PE01			RTH1			RTH2			RTH3			RD5M			RTOE			LTH2			LTH3			LTB2			LTB3			LHEE			LTOE			LD5M			LTB1			RTB2			RHEE			RTB3			RTB1			LTH1			LPSI			PE03			PE02			RPSI			T10			
		X1	Y1	Z1	X2	Y2	Z2	X3	Y3	Z3	X4	Y4	Z4	X5	Y5	Z5	X6	Y6	Z6	X7	Y7	Z7	X8	Y8	Z8	X9	Y9	Z9	X10	Y10	Z10	X11	Y11	Z11	X12	Y12	Z12	X13	Y13	Z13	X14	Y14	Z14	X15	Y15	Z15	X16	Y16	Z16	X17	Y17	Z17	X18	Y18	Z18	X19	Y19	Z19	X20	Y20	Z20	X21	Y21	Z21	X22	Y22	Z22	X23	Y23	Z23	X24	Y24	Z24	X25	Y25	Z25	X26	Y26	Z26	X27	Y27	Z27	X28	Y28	Z28	X29	Y29	Z29	X30	Y30	Z30	

283	1.41	371.6376342773439	1359.463134765625	150.2527313232422	339.6054992675782	1263.033569335938	265.2337951660157	491.8807678222659	1264.693237304688	132.5010223388672	552.5842285156252	1082.485717773438	129.599594116211	522.861022949219	882.4251098632817	272.5946350097657	511.5943298339846	874.1227416992192	47.01931762695314	323.5145874023439	961.6587524414067	180.0642852783204	459.8283996582034	586.925964355469	297.988983154297	475.3210754394534	512.1399536132815	276.1928100585939	502.9671936035159	566.8067016601565	281.1776733398439	481.4295349121096	18.20479393005372	247.6645812988282	517.377136230469	32.00255584716798	191.5521850585938	526.8591308593752	560.8720703125002	20.35203552246094	579.6884765625002	617.9869384765627	5.588715076446535	459.9458923339846	264.7837219238282	36.3529739379883	507.9733886718752	274.5345764160157	35.14759063720705	363.7836914062501	108.0432205200196	104.2188873291016	536.3648071289065	49.15178298950198	73.32997131347659	492.6342468261721	47.84109497070314	35.94435119628908	494.9636535644534	333.8332824707032	23.3995475769043	420.1795043945315	251.0548553466798	265.7247924804689	328.5965576171876	30.41560363769533	188.9486389160157	444.1606140136721	211.8695831298829	245.4382934570314	467.0683593750002	286.7056274414064	251.5299377441407	530.1779785156252	620.4593505859377	5.765519618988039	316.5726318359376	923.259643554688	139.8194427490235	306.0957031250001	901.0128784179692	155.7429504394532	309.5845642089845	902.284057617188	206.1932678222657	324.5002441406251	928.309936523438	228.5935821533204	342.9202270507814	1062.016723632813	171.0606079101563	
284	1.415	377.9444580078126	1359.388549804688	149.9616699218751	346.1822814941407	1263.181762695313	265.3243713378907	498.0061035156252	1264.57080078125	131.9780578613282	558.5576782226565	1082.404541015625	129.206039428711	528.9812011718752	882.2680053710942	272.671112060547	518.0390625000002	874.4423217773442	47.18008422851564	329.7227783203126	961.5292358398442	179.8283691406251	463.3781433105471	586.812927246094	297.624969482422	478.0227661132815	511.8638610839846	275.8520507812501	506.1953125000002	566.216979980469	280.6217651367189	481.4068603515627	18.29959869384766	247.5712280273439	517.398132324219	32.05805587768556	191.4883422851563	535.2738037109377	561.6849365234377	20.75050163269044	587.5394287109377	619.1320800781252	5.657372474670412	475.632019042969	261.1731872558595	35.97984695434572	523.2822265625002	272.6029052734376	34.8431739807129	384.9194641113284	101.0517272949219	103.3990173339844	559.794616699219	48.40055084228518	72.88191986083987	516.0272216796877	45.4603958129883	35.3661575317383	508.2042236328127	331.4548645019532	23.143217086792	421.0825805664065	251.0079650878907	265.4998168945314	328.561981201172	30.4818572998047	188.8782043457032	444.9077453613284	211.7626342773439	245.1803283691407	468.0513916015627	286.4463195800782	251.2218780517579	538.1219482421877	621.2868652343752	6.029545307159427	322.8760070800782	923.082397460938	139.5211334228516	312.4085693359376	900.8718261718755	155.357406616211	315.8148803710939	902.0529174804692	205.8072357177736	330.6883850097657	928.116088867188	228.326629638672	349.0788574218751	1061.9404296875	171.1275787353516	
285	1.42	384.2399597167971	1359.221069335938	149.6580352783204	352.7339477539064	1263.225952148438	265.3931274414064	504.1307678222659	1264.36083984375	131.467025756836	564.5471801757815	1082.239501953125	128.8340148925782	535.1065673828127	882.0343627929692	272.7444152832032	524.5274047851565	874.6452026367192	47.32833099365236	335.9444885253907	961.297973632813	179.5269622802735	466.9628906250002	586.674499511719	297.2960815429689	480.7690429687502	511.577575683594	275.5339965820314	509.4562683105471	565.6206054687502	280.0786743164064	481.3821716308596	18.38744544982911	247.4884796142579	517.4235839843752	32.12422943115236	191.4264678955079	543.4622192382815	562.3441162109377	21.17192077636719	595.2395629882815	620.0669555664065	5.775867462158205	491.324157714844	257.545623779297	35.65533447265626	538.5372314453127	270.6715087890626	34.54088973999025	406.3244323730471	94.18890380859378	102.6043395996094	583.2756958007815	47.87302398681642	72.38470458984378	539.5103759765627	43.2915496826172	34.75412750244142	521.3733520507815	329.0105590820314	22.92541122436524	421.9862365722659	250.9612579345704	265.3006896972657	328.5287170410157	30.54122543334962	188.8151092529297	445.6517639160159	211.6481018066407	244.9497985839845	469.0414733886721	286.1818847656251	250.9449157714845	545.9016113281252	621.9595947265627	6.325284481048588	329.2067871093751	922.7896118164067	139.1734161376954	318.7476806640626	900.616088867188	154.9325103759766	322.0563354492189	901.7312622070317	205.3820190429689	336.8780822753907	927.8325195312505	228.0083465576173	355.2390441894532	1061.762084960938	171.1437530517579	
286	1.425	390.525817871094	1358.9609375	149.3415222167969	359.2619628906251	1263.166137695313	265.4397277832032	510.2572326660159	1264.062377929688	130.9675598144532	570.5551757812502	1081.988525390625	128.4833068847657	541.2376098632815	881.7230834960942	272.8137817382814	531.0587158203127	874.7282104492192	47.46053314208986	342.1815795898439	960.9645385742192	179.1611633300782	470.5858154296877	586.5107421875002	297.003631591797	483.5581970214846	511.2805175781252	275.2390441894532	512.7525634765627	565.016052246094	279.5497436523439	481.3555908203127	18.46748733520509	247.416961669922	517.4504394531252	32.19686889648439	191.3667449951172	551.430603027344	562.8416748046877	21.60809326171876	602.7982177734377	620.7902832031252	5.951950550079347	507.0091247558596	253.9215393066407	35.3796844482422	553.7249145507815	268.757781982422	34.24045562744142	427.9732360839846	87.50307464599612	101.8326110839844	606.7662353515627	47.58630371093751	71.83277893066409	563.046081542969	41.36163330078126	34.10352706909181	534.463317871094	326.5130310058595	22.74676513671876	422.8861999511721	250.9156036376954	265.1295166015626	328.4975891113282	30.59670639038087	188.7593231201172	446.3886413574221	211.5245513916017	244.7502288818361	470.0396728515627	285.9132385253907	250.7031707763673	553.523620605469	622.4714355468752	6.64868783950806	335.5644836425782	922.3810424804692	138.7789001464844	325.1127014160157	900.2459106445317	154.4700469970704	328.3090820312501	901.319946289063	204.9193725585939	343.0696716308595	927.4594726562505	227.6397094726564	361.4016723632814	1061.481811523438	171.108871459961	
